# xmcd
#
# Track frame offsets:
#	150
#	16237
#	33798
#	53369
#	69552
#	84636
#	98827
#	114862
#	131106
#	147186
#	165476
#	179226
#	195400
#	209589
#	223892
#	237693
#	254164
#	272718
#	288805
#
# Disc length: 4048 seconds
#
# Revision: 2
# Processed by: cddbd v1.5.2PL0 Copyright (c) Steve Scherf et al.
# Submitted via: audiograbber 1.83.01
#
DISCID=1e0fce13
DTITLE=Various Artist - Promo Only Country Radio 2010 - 09
DYEAR=2010
DGENRE=Country
TTITLE0=John Rich - Country Done Come to Town
TTITLE1=Darius Rucker - Come Back Song
TTITLE2=Kenny Chesney - The Boys of Fall
TTITLE3=Reba McEntire - Turn on the Radio
TTITLE4=Josh Gracin - Cover Girl
TTITLE5=Joe Nichols - The Shape I'm in
TTITLE6=James Wesley - Real
TTITLE7=Johnny Bulford - Don't Make Me Love You
TTITLE8=George Strait - The Breath You Take
TTITLE9=Burns and Poe - How Long is Long Enough
TTITLE10=Jessie James - Boys in the Summer
TTITLE11=Brantley Gilbert - My Kind of Crazy
TTITLE12=Miranda Lambert - Only Prettier
TTITLE13=Todd O'Neill - Somethin' with Some Attitude
TTITLE14=Chris Young - Voices (Single Version)
TTITLE15=Craig Campbell - Family Man
TTITLE16=Mark Chesnutt - Lovin' Her Was Easier
TTITLE17=Train - Hey, Soul Sister (Country Mix)
TTITLE18=Blake Wise - Cornfields
EXTD=
EXTT0=
EXTT1=
EXTT2=
EXTT3=
EXTT4=
EXTT5=
EXTT6=
EXTT7=
EXTT8=
EXTT9=
EXTT10=
EXTT11=
EXTT12=
EXTT13=
EXTT14=
EXTT15=
EXTT16=
EXTT17=
EXTT18=
PLAYORDER=
